<?xml version="1.0" standalone="no"?><!DOCTYPE svg PUBLIC "-//W3C//DTD SVG 1.1//EN" "http://www.w3.org/Graphics/SVG/1.1/DTD/svg11.dtd"><svg t="1751020637172" class="icon" viewBox="0 0 1024 1024" version="1.1" xmlns="http://www.w3.org/2000/svg" p-id="1708" xmlns:xlink="http://www.w3.org/1999/xlink" width="200" height="200"><path d="M208.979592 1024h606.040816c115.461224 0 208.979592-93.518367 208.979592-208.979592V208.979592C1024 93.518367 930.481633 0 815.020408 0H208.979592C93.518367 0 0 93.518367 0 208.979592v606.040816c0 115.461224 93.518367 208.979592 208.979592 208.979592z" fill="#202D6F" p-id="1709"></path><path d="M1022.955102 208.979592c0-115.461224-93.518367-208.979592-208.979592-208.979592h-606.040816C99.474286 0 10.34449 82.546939 0 188.290612L1022.955102 449.306122V208.979592z" fill="#162458" p-id="1710"></path><path d="M1023.79102 815.020408V679.183673L0 825.469388c5.433469 110.550204 96.757551 198.530612 208.770612 198.530612h606.040817c115.461224 0 208.979592-93.518367 208.979591-208.979592z" fill="#0C1633" p-id="1711"></path><path d="M512 104.489796c-225.07102 0-407.510204 182.439184-407.510204 407.510204s182.439184 407.510204 407.510204 407.510204 407.510204-182.439184 407.510204-407.510204-182.439184-407.510204-407.510204-407.510204z" fill="#FFFFFF" p-id="1712"></path><path d="M512 146.285714c-201.978776 0-365.714286 163.73551-365.714286 365.714286s163.73551 365.714286 365.714286 365.714286 365.714286-163.73551 365.714286-365.714286-163.73551-365.714286-365.714286-365.714286z" fill="#272527" p-id="1713"></path><path d="M323.918367 321.724082c-10.13551 44.617143-2.716735 92.26449 17.554286 133.328979 12.747755 1.149388 25.39102 2.194286 38.034286 4.388572 39.706122 8.463673 76.277551 32.182857 99.474285 65.724081 31.033469 42.631837 38.034286 101.773061 19.644082 151.405715a163.129469 163.129469 0 0 1-100.310204 97.906938c-34.063673 12.225306-71.366531 10.44898-105.743673 0.41796 38.347755 17.449796 81.71102 24.137143 122.984489 15.464489 53.603265-10.24 103.026939-44.303673 130.298776-91.95102-19.644082-38.138776-24.973061-84.114286-12.434286-125.805714 14.733061-52.349388 57.469388-94.876735 109.191837-109.818776 41.795918-12.434286 86.93551-7.314286 124.969796 14.106123 38.974694 21.733878 67.395918 60.081633 78.785306 103.235918-0.940408-32.496327-14.942041-63.738776-32.809796-90.383674-35.004082-51.09551-94.563265-82.860408-155.898775-84.950204-28.630204 50.99102-85.577143 84.950204-144.091429 82.23347-75.546122 1.149388-145.136327-59.768163-156.943674-134.269388-9.299592-48.901224 5.955918-101.982041 39.810613-138.657959 8.254694-9.926531 19.017143-16.927347 28.003265-26.017959-51.30449 25.6-89.547755 76.69551-101.146122 133.328979l0.626938 0.31347z" fill="#C3C1C3" p-id="1714"></path></svg>